#!OML:ASF H:\Terrain\Patient Classification 1\Takeo\Monday\TakeoMonday.ASF
:FULLY-SPECIFIED
:DEGREES
1548
root 10.4867 17.3533 -2.99389 -27.7677 -66.3821 27.9927
lowerback 6.98143 -5.31205 -3.04626
upperback 4.97641 -7.40002 2.71949
thorax 2.02128 -3.91108 4.84126
lowerneck -11.6234 11.3249 3.6569
upperneck -1.44238 15.0408 -15.3274
head 2.94707 6.92549 -4.17614
rclavicle -1.11319e-014 -1.11319e-014
rhumerus 20.3235 24.9767 -107.778
rradius 64.6859
rwrist -59.3698
rhand -35.8082 16.3864
rfingers 7.12502
rthumb -8.92475 -13.4049
lclavicle -1.11319e-014 -1.11319e-014
lhumerus 56.7648 -33.9673 83.6973
lradius 23.6887
lwrist -25.5295
lhand -40.5466 31.5759
lfingers 7.12502
lthumb -13.4946 61.1187
rfemur -13.9347 19.3805 5.3893
rtibia 38.1974
rfoot -20.2377 -0.18115
rtoes -12.3584
lfemur -8.79932 29.0031 -22.9005
ltibia 29.2337
lfoot -14.8478 26.2418
ltoes 6.57917
1549
root 10.4882 17.3487 -3.0033 -27.4747 -65.7226 27.856
lowerback 6.94306 -5.27727 -3.28489
upperback 4.92291 -7.36267 2.77403
thorax 2.02179 -3.8982 5.02659
lowerneck -11.2865 11.2284 4.02275
upperneck -1.441 14.8996 -15.8758
head 2.95949 6.85302 -4.41891
rclavicle -1.31198e-014 3.18055e-014
rhumerus 20.2887 24.9829 -107.785
rradius 65.0459
rwrist -60.1608
rhand -36.4896 16.2988
rfingers 7.12502
rthumb -9.58226 -13.4633
lclavicle -1.31198e-014 3.18055e-014
lhumerus 57.0557 -34.3769 82.9441
lradius 23.6127
lwrist -25.6108
lhand -40.8568 32.9461
lfingers 7.12502
lthumb -13.7937 62.4688
rfemur -14.0433 18.9721 5.13096
rtibia 38.4279
rfoot -20.4351 -0.292796
rtoes -13.0715
lfemur -9.04417 28.4153 -23.3183
ltibia 29.0911
lfoot -14.6701 26.1816
ltoes 6.64812
1550
root 10.486 17.3506 -3.01806 -27.0419 -65.0991 27.87
lowerback 6.59495 -5.18743 -3.49482
upperback 4.84724 -7.24073 2.82818
thorax 2.15568 -3.84259 5.16192
lowerneck -11.1512 11.0497 3.85306
upperneck -1.47105 14.6815 -16.0511
head 2.91201 6.7476 -4.47402
rclavicle -5.08889e-014 3.18055e-015
rhumerus 20.5545 24.7146 -107.693
rradius 65.1856
rwrist -60.534
rhand -36.6305 15.3013
rfingers 7.12502
rthumb -9.71813 -14.4545
lclavicle -5.08889e-014 3.18055e-015
lhumerus 57.4169 -34.7964 82.4074
lradius 23.531
lwrist -25.5045
lhand -40.2947 32.976
lfingers 7.12502
lthumb -13.2519 62.5347
rfemur -14.4506 18.5382 4.74493
rtibia 38.5546
rfoot -20.5374 -0.370092
rtoes -14.0583
lfemur -9.74032 27.9077 -23.9032
ltibia 29.1683
lfoot -14.5336 26.105
ltoes 6.97338
1551
root 10.4902 17.3543 -3.02863 -25.4522 -64.834 26.5758
lowerback 6.34189 -5.16202 -3.04249
upperback 4.82662 -7.18251 3.04571
thorax 2.23821 -3.80555 5.11161
lowerneck -11.4619 10.9134 3.39546
upperneck -1.24221 14.569 -15.8126
head 2.96459 6.67509 -4.32735
rclavicle -6.36111e-015 -3.18055e-015
rhumerus 20.5888 24.7229 -107.75
rradius 65.4282
rwrist -60.6564
rhand -36.7246 14.3953
rfingers 7.12502
rthumb -9.80899 -15.3562
lclavicle -6.36111e-015 -3.18055e-015
lhumerus 57.3599 -34.6564 82.7129
lradius 23.2375
lwrist -26.1454
lhand -39.8327 31.5734
lfingers 7.12502
lthumb -12.8065 61.1606
rfemur -14.7741 18.2537 5.11076
rtibia 38.5882
rfoot -20.4646 -0.581765
rtoes -13.4193
lfemur -10.4263 27.5325 -23.7279
ltibia 29.3187
lfoot -14.3656 26.0289
ltoes 7.151
1552
root 10.501 17.3566 -3.02226 -23.9242 -64.5847 24.9098
lowerback 6.54365 -5.21409 -2.30565
upperback 4.85178 -7.22449 3.2084
thorax 2.08495 -3.80783 4.89625
lowerneck -11.0875 11.033 3.99793
upperneck -1.32313 14.6826 -16.3017
head 2.97997 6.73822 -4.56751
rclavicle -5.40694e-014 4.29375e-014
rhumerus 20.2254 25.1646 -107.94
rradius 65.6675
rwrist -60.9813
rhand -37.1468 14.8679
rfingers 7.12502
rthumb -10.2162 -14.864
lclavicle -5.40694e-014 4.29375e-014
lhumerus 56.953 -34.2704 83.2491
lradius 22.8863
lwrist -27.103
lhand -40.0087 30.6979
lfingers 7.12502
lthumb -12.9761 60.2743
rfemur -14.5803 17.7589 5.75822
rtibia 38.6205
rfoot -20.4884 -0.774451
rtoes -13.3727
lfemur -10.5243 27.2897 -23.1862
ltibia 29.4124
lfoot -14.2249 25.7661
ltoes 6.37378
1553
root 10.5076 17.3569 -3.01361 -23.895 -64.0238 24.7387
lowerback 6.76606 -5.19234 -2.27764
upperback 4.93827 -7.19848 3.16279
thorax 2.04003 -3.7951 4.85169
lowerneck -11.949 10.8303 3.22769
upperneck -0.497106 14.5674 -15.376
head 3.21439 6.63673 -4.13312
rclavicle -8.90555e-014 6.52014e-014
rhumerus 20.1337 25.4651 -107.999
rradius 65.5835
rwrist -61.7117
rhand -37.3289 15.8314
rfingers 7.12502
rthumb -10.3919 -13.8918
lclavicle -8.90555e-014 6.52014e-014
lhumerus 56.7267 -34.0348 83.5817
lradius 22.5316
lwrist -27.883
lhand -40.1186 30.4474
lfingers 7.12502
lthumb -13.0821 60.0171
rfemur -14.2149 17.0587 5.63144
rtibia 38.6798
rfoot -20.6263 -0.700123
rtoes -13.8428
lfemur -10.3778 26.998 -23.347
ltibia 29.4674
lfoot -14.043 25.57
ltoes 5.80101
1554
root 10.5071 17.3527 -3.02888 -24.0397 -63.4855 25.0529
lowerback 6.7439 -5.10667 -2.86965
upperback 4.97183 -7.11662 3.233
thorax 2.16427 -3.77693 5.24346
lowerneck -12.0972 10.7598 3.1532
upperneck -0.27393 14.5182 -15.4387
head 3.30147 6.59251 -4.13284
rclavicle -7.07673e-014 7.63333e-014
rhumerus 20.1362 25.8423 -107.948
rradius 65.4492
rwrist -62.2995
rhand -37.2341 16.6218
rfingers 7.12502
rthumb -10.3005 -13.106
lclavicle -7.07673e-014 7.63333e-014
lhumerus 56.581 -33.6637 83.9463
lradius 22.1152
lwrist -28.5869
lhand -39.8623 29.8843
lfingers 7.12502
lthumb -12.835 59.4696
rfemur -14.2938 16.7456 5.28007
rtibia 38.7469
rfoot -20.6166 -0.777258
rtoes -13.5721
lfemur -10.6457 26.6163 -23.8168
ltibia 29.5114
lfoot -13.5931 25.6423
ltoes 5.77597
1555
root 10.5052 17.3485 -3.04647 -23.1078 -63.0966 24.1936
lowerback 6.71269 -5.10932 -2.88033
upperback 4.98793 -7.12584 3.43051
thorax 2.22825 -3.7895 5.45044
lowerneck -12.109 10.6358 3.06292
upperneck -0.166788 14.3756 -15.3941
head 3.31257 6.51925 -4.11745
rclavicle 2.94201e-014 -2.06736e-014
rhumerus 19.9706 26.367 -107.923
rradius 65.3798
rwrist -62.5478
rhand -37.237 17.2775
rfingers 7.12502
rthumb -10.3032 -12.4502
lclavicle 2.94201e-014 -2.06736e-014
lhumerus 56.327 -33.1635 84.2618
lradius 21.7708
lwrist -29.1126
lhand -39.7279 29.1413
lfingers 7.12502
lthumb -12.7054 58.7348
rfemur -14.3879 16.5976 5.58991
rtibia 38.8245
rfoot -20.5344 -1.31239
rtoes -13.562
lfemur -10.9528 26.1827 -23.6929
ltibia 29.5019
lfoot -12.8441 25.7681
ltoes 5.05147
1556
root 10.51 17.3518 -3.04831 -21.3183 -62.6614 22.2713
lowerback 6.6403 -5.17862 -1.92881
upperback 5.09365 -7.1784 3.53645
thorax 2.27711 -3.79327 5.02347
lowerneck -11.96 10.5243 3.1508
upperneck -0.171805 14.21 -15.2897
head 3.26936 6.45305 -4.12286
rclavicle -9.06458e-014 2.06736e-014
rhumerus 19.9402 26.5 -108.023
rradius 65.4416
rwrist -62.9794
rhand -37.3343 17.1552
rfingers 7.12502
rthumb -10.3971 -12.5677
lclavicle -9.06458e-014 2.06736e-014
lhumerus 56.2328 -32.9554 84.3197
lradius 21.4868
lwrist -29.4338
lhand -39.7214 28.9669
lfingers 7.12502
lthumb -12.6992 58.5608
rfemur -14.2101 16.1433 6.40932
rtibia 38.8628
rfoot -20.543 -1.81149
rtoes -13.9964
lfemur -11.1131 25.5378 -23.0304
ltibia 29.4712
lfoot -12.3825 25.6634
ltoes 4.13236
1557
root 10.5197 17.3547 -3.04614 -20.9755 -61.9239 21.7229
lowerback 6.82935 -5.16373 -1.52036
upperback 5.20751 -7.13787 3.36912
thorax 2.21261 -3.75727 4.63815
lowerneck -11.9928 10.4175 3.19071
upperneck 0.0814877 14.0851 -15.0231
head 3.31915 6.39338 -4.05501
rclavicle 2.14687e-014 -3.18055e-015
rhumerus 19.87 26.6119 -108.095
rradius 65.6894
rwrist -63.024
rhand -38.4802 16.7707
rfingers 7.12502
rthumb -11.5024 -12.8937
lclavicle 2.14687e-014 -3.18055e-015
lhumerus 56.022 -32.9669 84.5904
lradius 21.2146
lwrist -29.885
lhand -39.4633 29.1075
lfingers 7.12502
lthumb -12.4504 58.7166
rfemur -13.7549 15.4193 6.47582
rtibia 38.8499
rfoot -20.5675 -2.0007
rtoes -14.6218
lfemur -10.9736 24.932 -23.0152
ltibia 29.4217
lfoot -12.3486 25.3893
ltoes 3.65765
1558
root 10.5308 17.353 -3.04452 -22.0189 -60.9934 22.4268
lowerback 7.42432 -5.13534 -1.96845
upperback 5.33032 -7.1234 3.10132
thorax 2.03228 -3.75867 4.66262
lowerneck -12.1293 10.2839 3.09942
upperneck 0.355159 13.9369 -14.6987
head 3.37615 6.31761 -3.94793
rclavicle -5.08889e-014 3.33958e-014
rhumerus 19.6143 26.7783 -108.234
rradius 65.692
rwrist -63.3782
rhand -38.6384 16.7875
rfingers 7.12502
rthumb -11.6549 -12.8684
lclavicle -5.08889e-014 3.33958e-014
lhumerus 55.4012 -32.5681 85.3958
lradius 20.943
lwrist -30.7417
lhand -39.2992 29.9775
lfingers 7.12502
lthumb -12.2922 59.5962
rfemur -13.0056 14.7284 5.86971
rtibia 38.8383
rfoot -20.5783 -2.01606
rtoes -14.9223
lfemur -10.4685 24.4436 -23.5905
ltibia 29.3087
lfoot -12.3271 25.2322
ltoes 3.79075
1559
root 10.5375 17.3548 -3.04748 -22.4779 -60.1488 22.6917
lowerback 7.80817 -5.10601 -2.36329
upperback 5.4239 -7.11128 2.98421
thorax 1.95247 -3.76395 4.793
lowerneck -11.8304 10.2244 3.43962
upperneck 0.244499 13.8137 -14.8998
head 3.32474 6.27154 -4.08521
rclavicle 5.56597e-015 0
rhumerus 19.4902 27.0999 -108.18
rradius 65.498
rwrist -63.5079
rhand -38.7537 16.9148
rfingers 7.12502
rthumb -11.7661 -12.7347
lclavicle 5.56597e-015 0
lhumerus 54.9452 -32.0444 85.9472
lradius 20.6885
lwrist -31.4867
lhand -39.4005 31.0286
lfingers 7.12502
lthumb -12.3899 60.6414
rfemur -12.5139 14.2364 5.48856
rtibia 38.8975
rfoot -20.6443 -2.09499
rtoes -14.6772
lfemur -10.2039 23.9401 -24.0169
ltibia 29.1725
lfoot -12.3135 25.041
ltoes 4.10524
1560
root 10.5367 17.3592 -3.05968 -21.9473 -59.3803 22.3472
lowerback 7.69605 -5.02933 -2.38564
upperback 5.36714 -7.0028 2.96961
thorax 1.94404 -3.70599 4.77771
lowerneck -11.3414 10.0866 3.88619
upperneck 0.0649535 13.5761 -15.3006
head 3.23506 6.17357 -4.3186
rclavicle -6.20208e-014 1.27222e-014
rhumerus 19.3865 27.1758 -108.086
rradius 65.2001
rwrist -63.7537
rhand -38.711 17.7732
rfingers 7.12502
rthumb -11.725 -11.8787
lclavicle -6.20208e-014 1.27222e-014
lhumerus 55.0485 -32.2055 85.3492
lradius 20.5659
lwrist -31.1557
lhand -39.5323 30.6102
lfingers 7.12502
lthumb -12.5169 60.2153
rfemur -12.536 13.8156 5.41725
rtibia 38.9873
rfoot -20.6747 -2.41131
rtoes -14.3292
lfemur -10.5324 23.4192 -24.2686
ltibia 29.1317
lfoot -12.1858 24.7713
ltoes 4.58072
